<svg xmlns="http://www.w3.org/2000/svg" width="17.995" height="17.997" viewBox="0 0 17.995 17.997">
  <path id="download" d="M566.626,988.422a.5.5,0,0,0,0-.7.462.462,0,0,0-.678,0l-3.471,3.565V979.505A.489.489,0,0,0,562,979a.5.5,0,0,0-.487.5v11.778l-3.465-3.565a.469.469,0,0,0-.684,0,.5.5,0,0,0,0,.7l4.293,4.417a.481.481,0,0,0,.684,0Zm3.4,3.233a.482.482,0,0,1,.48-.492.487.487,0,0,1,.486.492V996.5a.5.5,0,0,1-.486.5H553.48a.49.49,0,0,1-.48-.5v-4.848a.482.482,0,1,1,.965,0v4.354h16.063Zm0,0" transform="translate(-553 -979.005)" fill="#eee"/>
</svg>
